<svg xmlns="http://www.w3.org/2000/svg" xmlns:xlink="http://www.w3.org/1999/xlink" contentStyleType="text/css" data-diagram-type="CLASS" height="1581px" preserveAspectRatio="none" style="width:1943px;height:1581px;background:#FAFAFA;" version="1.1" viewBox="0 0 1943 1581" width="1943px" zoomAndPan="magnify"><?plantuml 1.2026.3beta4?><defs/><g><rect fill="#FAFAFA" height="1581" style="stroke:none;stroke-width:1;" width="1943" x="0" y="0"/><!--cluster src--><g class="cluster" data-qualified-name="src" data-source-line="22" id="ent0004"><path d="M8.5,6 L31.355,6 A3.75,3.75 0 0 1 33.855,8.5 L40.855,27.1328 L1925.5,27.1328 A2.5,2.5 0 0 1 1928,29.6328 L1928,1564.22 A2.5,2.5 0 0 1 1925.5,1566.72 L8.5,1566.72 A2.5,2.5 0 0 1 6,1564.22 L6,8.5 A2.5,2.5 0 0 1 8.5,6" fill="#FFF9C4" style="stroke:#888888;stroke-width:1.5;"/><line style="stroke:#888888;stroke-width:1.5;" x1="6" x2="40.855" y1="27.1328" y2="27.1328"/><text fill="#000000" font-family="sans-serif" font-size="13" font-weight="700" lengthAdjust="spacing" textLength="21.855" x="10" y="20.0669">src</text></g><!--cluster extraction--><g class="cluster" data-qualified-name="src.extraction" data-source-line="20" id="ent0002"><path d="M32.5,1156.96 L108.6626,1156.96 A3.75,3.75 0 0 1 111.1626,1159.46 L118.1626,1178.0928 L638.5,1178.0928 A2.5,2.5 0 0 1 641,1180.5928 L641,1540.22 A2.5,2.5 0 0 1 638.5,1542.72 L32.5,1542.72 A2.5,2.5 0 0 1 30,1540.22 L30,1159.46 A2.5,2.5 0 0 1 32.5,1156.96" fill="#EDE7F6" style="stroke:#888888;stroke-width:1.5;"/><line style="stroke:#888888;stroke-width:1.5;" x1="30" x2="118.1626" y1="1178.0928" y2="1178.0928"/><text fill="#000000" font-family="sans-serif" font-size="13" font-weight="700" lengthAdjust="spacing" textLength="75.1626" x="34" y="1171.0269">extraction</text></g><!--cluster rag--><g class="cluster" data-qualified-name="src.rag" data-source-line="62" id="ent0010"><path d="M667.5,631.49 L692.9893,631.49 A3.75,3.75 0 0 1 695.4893,633.99 L702.4893,652.6228 L1682.5,652.6228 A2.5,2.5 0 0 1 1685,655.1228 L1685,1299.14 A2.5,2.5 0 0 1 1682.5,1301.64 L667.5,1301.64 A2.5,2.5 0 0 1 665,1299.14 L665,633.99 A2.5,2.5 0 0 1 667.5,631.49" fill="#E3F2FD" style="stroke:#888888;stroke-width:1.5;"/><line style="stroke:#888888;stroke-width:1.5;" x1="665" x2="702.4893" y1="652.6228" y2="652.6228"/><text fill="#000000" font-family="sans-serif" font-size="13" font-weight="700" lengthAdjust="spacing" textLength="24.4893" x="669" y="645.5569">rag</text></g><!--cluster agent--><g class="cluster" data-qualified-name="src.agent" data-source-line="117" id="ent0023"><path d="M1140.5,233.53 L1183.8643,233.53 A3.75,3.75 0 0 1 1186.3643,236.03 L1193.3643,254.6628 L1705.5,254.6628 A2.5,2.5 0 0 1 1708,257.1628 L1708,579.99 A2.5,2.5 0 0 1 1705.5,582.49 L1140.5,582.49 A2.5,2.5 0 0 1 1138,579.99 L1138,236.03 A2.5,2.5 0 0 1 1140.5,233.53" fill="#E8F5E9" style="stroke:#888888;stroke-width:1.5;"/><line style="stroke:#888888;stroke-width:1.5;" x1="1138" x2="1193.3643" y1="254.6628" y2="254.6628"/><text fill="#000000" font-family="sans-serif" font-size="13" font-weight="700" lengthAdjust="spacing" textLength="42.3643" x="1142" y="247.5969">agent</text></g><!--cluster ui--><g class="cluster" data-qualified-name="src.ui" data-source-line="145" id="ent0031"><path d="M1143.5,48 L1158.2109,48 A3.75,3.75 0 0 1 1160.7109,50.5 L1167.7109,69.1328 L1532.5,69.1328 A2.5,2.5 0 0 1 1535,71.6328 L1535,182.03 A2.5,2.5 0 0 1 1532.5,184.53 L1143.5,184.53 A2.5,2.5 0 0 1 1141,182.03 L1141,50.5 A2.5,2.5 0 0 1 1143.5,48" fill="#FBE9E7" style="stroke:#888888;stroke-width:1.5;"/><line style="stroke:#888888;stroke-width:1.5;" x1="1141" x2="1167.7109" y1="69.1328" y2="69.1328"/><text fill="#000000" font-family="sans-serif" font-size="13" font-weight="700" lengthAdjust="spacing" textLength="13.7109" x="1145" y="62.0669">ui</text></g><!--class Config--><g class="entity" data-qualified-name="src.Config" data-source-line="51" id="ent0009"><rect fill="#FFFFFF" height="119.125" rx="2.5" ry="2.5" style="stroke:#555555;stroke-width:0.5;" width="208.5195" x="1703.74" y="955.39"/><rect fill="#E8EAF6" height="37.9375" rx="2.5" ry="2.5" style="stroke:#E8EAF6;stroke-width:0.5;" width="208.5195" x="1703.74" y="955.39"/><rect fill="#E8EAF6" height="2.5" style="stroke:#E8EAF6;stroke-width:0.5;" width="208.5195" x="1703.74" y="990.8275"/><rect fill="none" height="119.125" rx="2.5" ry="2.5" style="stroke:#555555;stroke-width:0.5;" width="208.5195" x="1703.74" y="955.39"/><ellipse cx="1775.9226" cy="974.3588" fill="#ADD1B2" rx="11" ry="11" style="stroke:#181818;stroke-width:1;"/><path d="M1778.8914,979.9994 Q1778.3132,980.2963 1777.6726,980.4369 Q1777.032,980.5931 1776.3289,980.5931 Q1773.8289,980.5931 1772.5007,978.9525 Q1771.1882,977.2963 1771.1882,974.1713 Q1771.1882,971.0463 1772.5007,969.39 Q1773.8289,967.7338 1776.3289,967.7338 Q1777.032,967.7338 1777.6726,967.89 Q1778.3289,968.0463 1778.8914,968.3431 L1778.8914,971.0619 Q1778.2664,970.4838 1777.6726,970.2181 Q1777.0789,969.9369 1776.4539,969.9369 Q1775.1101,969.9369 1774.4226,971.015 Q1773.7351,972.0775 1773.7351,974.1713 Q1773.7351,976.265 1774.4226,977.3431 Q1775.1101,978.4056 1776.4539,978.4056 Q1777.0789,978.4056 1777.6726,978.14 Q1778.2664,977.8588 1778.8914,977.2806 L1778.8914,979.9994 Z " fill="#000000"/><text fill="#000000" font-family="sans-serif" font-size="12" font-style="italic" lengthAdjust="spacing" textLength="59.6543" x="1794.4226" y="971.5287">&#171;module&#187;</text><text fill="#000000" font-family="sans-serif" font-size="12" lengthAdjust="spacing" textLength="38.502" x="1804.9988" y="985.4974">Config</text><line style="stroke:#555555;stroke-width:0.5;" x1="1704.74" x2="1911.2595" y1="993.3275" y2="993.3275"/><text fill="#000000" font-family="sans-serif" font-size="14" lengthAdjust="spacing" textLength="150.8145" x="1709.74" y="1010.3226">+LLM_PROVIDER : str</text><text fill="#000000" font-family="sans-serif" font-size="14" lengthAdjust="spacing" textLength="159.2637" x="1709.74" y="1026.6195">+OLLAMA_MODEL : str</text><text fill="#000000" font-family="sans-serif" font-size="14" lengthAdjust="spacing" textLength="153.8975" x="1709.74" y="1042.9164">+OPENAI_MODEL : str</text><line style="stroke:#555555;stroke-width:0.5;" x1="1704.74" x2="1911.2595" y1="1050.2181" y2="1050.2181"/><text fill="#000000" font-family="sans-serif" font-size="14" lengthAdjust="spacing" textLength="196.5195" x="1709.74" y="1067.2132">+get_llm() : BaseChatModel</text></g><!--class BaseLoader--><g class="entity" data-qualified-name="src.extraction.BaseLoader" data-source-line="22" id="ent0003"><rect fill="#FFFFFF" height="70.2344" rx="2.5" ry="2.5" style="stroke:#555555;stroke-width:0.5;" width="141.4453" x="213.28" y="1190.96"/><rect fill="#E8EAF6" height="37.9375" rx="2.5" ry="2.5" style="stroke:#E8EAF6;stroke-width:0.5;" width="141.4453" x="213.28" y="1190.96"/><rect fill="#E8EAF6" height="2.5" style="stroke:#E8EAF6;stroke-width:0.5;" width="141.4453" x="213.28" y="1226.3975"/><rect fill="none" height="70.2344" rx="2.5" ry="2.5" style="stroke:#555555;stroke-width:0.5;" width="141.4453" x="213.28" y="1190.96"/><ellipse cx="245.7896" cy="1209.9288" fill="#A9DCDF" rx="11" ry="11" style="stroke:#181818;stroke-width:1;"/><path d="M245.8989,1205.2725 L244.7427,1210.3506 L247.0708,1210.3506 L245.8989,1205.2725 Z M244.4146,1203.0381 L247.3989,1203.0381 L250.7583,1215.4288 L248.3052,1215.4288 L247.5396,1212.3663 L244.2583,1212.3663 L243.5083,1215.4288 L241.0708,1215.4288 L244.4146,1203.0381 Z " fill="#000000"/><text fill="#000000" font-family="sans-serif" font-size="12" font-style="italic" lengthAdjust="spacing" textLength="64.2012" x="266.8476" y="1207.0987">&#171;abstract&#187;</text><text fill="#000000" font-family="sans-serif" font-size="12" font-style="italic" lengthAdjust="spacing" textLength="70.5352" x="263.6806" y="1221.0674">BaseLoader</text><line style="stroke:#555555;stroke-width:0.5;" x1="214.28" x2="353.7253" y1="1228.8975" y2="1228.8975"/><line style="stroke:#555555;stroke-width:0.5;" x1="214.28" x2="353.7253" y1="1236.8975" y2="1236.8975"/><text fill="#000000" font-family="sans-serif" font-size="14" font-style="italic" lengthAdjust="spacing" textLength="129.4453" x="219.28" y="1253.8926">+load() : List[Dict]</text></g><!--class LegacyLoader--><g class="entity" data-qualified-name="src.extraction.LegacyLoader" data-source-line="26" id="ent0005"><rect fill="#FFFFFF" height="113.1875" rx="2.5" ry="2.5" style="stroke:#555555;stroke-width:0.5;" width="247.7236" x="377.14" y="1389.09"/><rect fill="#E8EAF6" height="32" rx="2.5" ry="2.5" style="stroke:#E8EAF6;stroke-width:0.5;" width="247.7236" x="377.14" y="1389.09"/><rect fill="#E8EAF6" height="2.5" style="stroke:#E8EAF6;stroke-width:0.5;" width="247.7236" x="377.14" y="1418.59"/><rect fill="none" height="113.1875" rx="2.5" ry="2.5" style="stroke:#555555;stroke-width:0.5;" width="247.7236" x="377.14" y="1389.09"/><ellipse cx="454.7254" cy="1405.09" fill="#ADD1B2" rx="11" ry="11" style="stroke:#181818;stroke-width:1;"/><path d="M457.6942,1410.7306 Q457.1161,1411.0275 456.4754,1411.1681 Q455.8348,1411.3244 455.1317,1411.3244 Q452.6317,1411.3244 451.3036,1409.6838 Q449.9911,1408.0275 449.9911,1404.9025 Q449.9911,1401.7775 451.3036,1400.1213 Q452.6317,1398.465 455.1317,1398.465 Q455.8348,1398.465 456.4754,1398.6213 Q457.1317,1398.7775 457.6942,1399.0744 L457.6942,1401.7931 Q457.0692,1401.215 456.4754,1400.9494 Q455.8817,1400.6681 455.2567,1400.6681 Q453.9129,1400.6681 453.2254,1401.7463 Q452.5379,1402.8088 452.5379,1404.9025 Q452.5379,1406.9963 453.2254,1408.0744 Q453.9129,1409.1369 455.2567,1409.1369 Q455.8817,1409.1369 456.4754,1408.8713 Q457.0692,1408.59 457.6942,1408.0119 L457.6942,1410.7306 Z " fill="#000000"/><text fill="#000000" font-family="sans-serif" font-size="12" lengthAdjust="spacing" textLength="84.0527" x="475.2254" y="1409.2443">LegacyLoader</text><line style="stroke:#555555;stroke-width:0.5;" x1="378.14" x2="623.8636" y1="1421.09" y2="1421.09"/><text fill="#000000" font-family="sans-serif" font-size="14" lengthAdjust="spacing" textLength="106.6543" x="383.14" y="1438.0851">-db_path : Path</text><line style="stroke:#555555;stroke-width:0.5;" x1="378.14" x2="623.8636" y1="1445.3869" y2="1445.3869"/><text fill="#000000" font-family="sans-serif" font-size="14" lengthAdjust="spacing" textLength="169.9482" x="383.14" y="1462.382">+__init__(db_path: Path)</text><text fill="#000000" font-family="sans-serif" font-size="14" lengthAdjust="spacing" textLength="129.4453" x="383.14" y="1478.6789">+load() : List[Dict]</text><text fill="#000000" font-family="sans-serif" font-size="14" lengthAdjust="spacing" textLength="235.7236" x="383.14" y="1494.9757">-create_legacy_database() : None</text></g><!--class WebScraper--><g class="entity" data-qualified-name="src.extraction.WebScraper" data-source-line="33" id="ent0006"><rect fill="#FFFFFF" height="162.0781" rx="2.5" ry="2.5" style="stroke:#555555;stroke-width:0.5;" width="295.3359" x="46.33" y="1364.64"/><rect fill="#E8EAF6" height="32" rx="2.5" ry="2.5" style="stroke:#E8EAF6;stroke-width:0.5;" width="295.3359" x="46.33" y="1364.64"/><rect fill="#E8EAF6" height="2.5" style="stroke:#E8EAF6;stroke-width:0.5;" width="295.3359" x="46.33" y="1394.14"/><rect fill="none" height="162.0781" rx="2.5" ry="2.5" style="stroke:#555555;stroke-width:0.5;" width="295.3359" x="46.33" y="1364.64"/><ellipse cx="153.0976" cy="1380.64" fill="#ADD1B2" rx="11" ry="11" style="stroke:#181818;stroke-width:1;"/><path d="M156.0663,1386.2806 Q155.4882,1386.5775 154.8476,1386.7181 Q154.207,1386.8744 153.5038,1386.8744 Q151.0038,1386.8744 149.6757,1385.2338 Q148.3632,1383.5775 148.3632,1380.4525 Q148.3632,1377.3275 149.6757,1375.6713 Q151.0038,1374.015 153.5038,1374.015 Q154.207,1374.015 154.8476,1374.1713 Q155.5038,1374.3275 156.0663,1374.6244 L156.0663,1377.3431 Q155.4413,1376.765 154.8476,1376.4994 Q154.2538,1376.2181 153.6288,1376.2181 Q152.2851,1376.2181 151.5976,1377.2963 Q150.9101,1378.3588 150.9101,1380.4525 Q150.9101,1382.5463 151.5976,1383.6244 Q152.2851,1384.6869 153.6288,1384.6869 Q154.2538,1384.6869 154.8476,1384.4213 Q155.4413,1384.14 156.0663,1383.5619 L156.0663,1386.2806 Z " fill="#000000"/><text fill="#000000" font-family="sans-serif" font-size="12" lengthAdjust="spacing" textLength="73.3008" x="173.5976" y="1384.7943">WebScraper</text><line style="stroke:#555555;stroke-width:0.5;" x1="47.33" x2="340.6659" y1="1396.64" y2="1396.64"/><text fill="#000000" font-family="sans-serif" font-size="14" lengthAdjust="spacing" textLength="55.7266" x="52.33" y="1413.6351">-url : str</text><text fill="#000000" font-family="sans-serif" font-size="14" lengthAdjust="spacing" textLength="101.2471" x="52.33" y="1429.932">-headers : dict</text><line style="stroke:#555555;stroke-width:0.5;" x1="47.33" x2="340.6659" y1="1437.2338" y2="1437.2338"/><text fill="#000000" font-family="sans-serif" font-size="14" lengthAdjust="spacing" textLength="119.0205" x="52.33" y="1454.2289">+__init__(url: str)</text><text fill="#000000" font-family="sans-serif" font-size="14" lengthAdjust="spacing" textLength="129.4453" x="52.33" y="1470.5257">+load() : List[Dict]</text><text fill="#000000" font-family="sans-serif" font-size="14" lengthAdjust="spacing" textLength="209.0361" x="52.33" y="1486.8226">-_fetch_html() : BeautifulSoup</text><text fill="#000000" font-family="sans-serif" font-size="14" lengthAdjust="spacing" textLength="283.3359" x="52.33" y="1503.1195">-_extract_tables(soup) : List[DataFrame]</text><text fill="#000000" font-family="sans-serif" font-size="14" lengthAdjust="spacing" textLength="246.1758" x="52.33" y="1519.4164">-_clean_dataframe(df) : DataFrame</text></g><!--class RAGResponse--><g class="entity" data-qualified-name="src.rag.RAGResponse" data-source-line="64" id="ent0011"><rect fill="#FFFFFF" height="86.5313" rx="2.5" ry="2.5" style="stroke:#555555;stroke-width:0.5;" width="199.3662" x="1469.32" y="971.69"/><rect fill="#E8EAF6" height="37.9375" rx="2.5" ry="2.5" style="stroke:#E8EAF6;stroke-width:0.5;" width="199.3662" x="1469.32" y="971.69"/><rect fill="#E8EAF6" height="2.5" style="stroke:#E8EAF6;stroke-width:0.5;" width="199.3662" x="1469.32" y="1007.1275"/><rect fill="none" height="86.5313" rx="2.5" ry="2.5" style="stroke:#555555;stroke-width:0.5;" width="199.3662" x="1469.32" y="971.69"/><ellipse cx="1522.7443" cy="990.6588" fill="#ADD1B2" rx="11" ry="11" style="stroke:#181818;stroke-width:1;"/><path d="M1525.7131,996.2994 Q1525.1349,996.5963 1524.4943,996.7369 Q1523.8537,996.8931 1523.1506,996.8931 Q1520.6506,996.8931 1519.3224,995.2525 Q1518.0099,993.5963 1518.0099,990.4713 Q1518.0099,987.3463 1519.3224,985.69 Q1520.6506,984.0338 1523.1506,984.0338 Q1523.8537,984.0338 1524.4943,984.19 Q1525.1506,984.3463 1525.7131,984.6431 L1525.7131,987.3619 Q1525.0881,986.7838 1524.4943,986.5181 Q1523.9006,986.2369 1523.2756,986.2369 Q1521.9318,986.2369 1521.2443,987.315 Q1520.5568,988.3775 1520.5568,990.4713 Q1520.5568,992.565 1521.2443,993.6431 Q1521.9318,994.7056 1523.2756,994.7056 Q1523.9006,994.7056 1524.4943,994.44 Q1525.0881,994.1588 1525.7131,993.5806 L1525.7131,996.2994 Z " fill="#000000"/><text fill="#000000" font-family="sans-serif" font-size="12" font-style="italic" lengthAdjust="spacing" textLength="71.502" x="1549.5021" y="987.8287">&#171;dataclass&#187;</text><text fill="#000000" font-family="sans-serif" font-size="12" lengthAdjust="spacing" textLength="84.0176" x="1543.2443" y="1001.7974">RAGResponse</text><line style="stroke:#555555;stroke-width:0.5;" x1="1470.32" x2="1667.6862" y1="1009.6275" y2="1009.6275"/><text fill="#000000" font-family="sans-serif" font-size="14" lengthAdjust="spacing" textLength="94.4521" x="1475.32" y="1026.6226">+answer : str</text><text fill="#000000" font-family="sans-serif" font-size="14" lengthAdjust="spacing" textLength="187.3662" x="1475.32" y="1042.9195">+sources : List[Document]</text><line style="stroke:#555555;stroke-width:0.5;" x1="1470.32" x2="1667.6862" y1="1050.2213" y2="1050.2213"/></g><!--class Pipeline--><g class="entity" data-qualified-name="src.rag.Pipeline" data-source-line="69" id="ent0012"><rect fill="#FFFFFF" height="212.9063" rx="2.5" ry="2.5" style="stroke:#555555;stroke-width:0.5;" width="323.4111" x="1345.29" y="665.49"/><rect fill="#E8EAF6" height="37.9375" rx="2.5" ry="2.5" style="stroke:#E8EAF6;stroke-width:0.5;" width="323.4111" x="1345.29" y="665.49"/><rect fill="#E8EAF6" height="2.5" style="stroke:#E8EAF6;stroke-width:0.5;" width="323.4111" x="1345.29" y="700.9275"/><rect fill="none" height="212.9063" rx="2.5" ry="2.5" style="stroke:#555555;stroke-width:0.5;" width="323.4111" x="1345.29" y="665.49"/><ellipse cx="1474.9184" cy="684.4588" fill="#ADD1B2" rx="11" ry="11" style="stroke:#181818;stroke-width:1;"/><path d="M1477.8872,690.0994 Q1477.309,690.3963 1476.6684,690.5369 Q1476.0278,690.6931 1475.3247,690.6931 Q1472.8247,690.6931 1471.4965,689.0525 Q1470.184,687.3963 1470.184,684.2713 Q1470.184,681.1463 1471.4965,679.49 Q1472.8247,677.8338 1475.3247,677.8338 Q1476.0278,677.8338 1476.6684,677.99 Q1477.3247,678.1463 1477.8872,678.4431 L1477.8872,681.1619 Q1477.2622,680.5838 1476.6684,680.3181 Q1476.0747,680.0369 1475.4497,680.0369 Q1474.1059,680.0369 1473.4184,681.115 Q1472.7309,682.1775 1472.7309,684.2713 Q1472.7309,686.365 1473.4184,687.4431 Q1474.1059,688.5056 1475.4497,688.5056 Q1476.0747,688.5056 1476.6684,688.24 Q1477.2622,687.9588 1477.8872,687.3806 L1477.8872,690.0994 Z " fill="#000000"/><text fill="#000000" font-family="sans-serif" font-size="12" font-style="italic" lengthAdjust="spacing" textLength="59.6543" x="1493.4184" y="681.6287">&#171;module&#187;</text><text fill="#000000" font-family="sans-serif" font-size="12" lengthAdjust="spacing" textLength="47.2266" x="1499.6323" y="695.5974">Pipeline</text><line style="stroke:#555555;stroke-width:0.5;" x1="1346.29" x2="1667.7011" y1="703.4275" y2="703.4275"/><text fill="#000000" font-family="sans-serif" font-size="14" lengthAdjust="spacing" textLength="259.5811" x="1351.29" y="720.4226">-_vectorstore_cache : Chroma | None</text><text fill="#000000" font-family="sans-serif" font-size="14" lengthAdjust="spacing" textLength="310.126" x="1351.29" y="736.7195">-_documents_cache : List[Document] | None</text><text fill="#000000" font-family="sans-serif" font-size="14" lengthAdjust="spacing" textLength="293.3779" x="1351.29" y="753.0164">+ask(query, chat_history) : RAGResponse</text><text fill="#000000" font-family="sans-serif" font-size="14" lengthAdjust="spacing" textLength="303.543" x="1351.29" y="769.3132">+build_prompt(query, chunks, history) : str</text><text fill="#000000" font-family="sans-serif" font-size="14" lengthAdjust="spacing" textLength="201.8926" x="1351.29" y="785.6101">-_get_vectorstore() : Chroma</text><text fill="#000000" font-family="sans-serif" font-size="14" lengthAdjust="spacing" textLength="275.7959" x="1351.29" y="801.907">-_get_all_documents() : List[Document]</text><text fill="#000000" font-family="sans-serif" font-size="14" lengthAdjust="spacing" textLength="311.4111" x="1351.29" y="838.5007">_get_all_documents() extrae el corpus BM25</text><text fill="#000000" font-family="sans-serif" font-size="14" lengthAdjust="spacing" textLength="285.9063" x="1351.29" y="854.7976">directamente del vectorstore persisitido.</text><text fill="#000000" font-family="sans-serif" font-size="14" lengthAdjust="spacing" textLength="310.8301" x="1351.29" y="871.0945">No recarga desde SQLite ni web en runtime.</text><line style="stroke:#555555;stroke-width:1;stroke-dasharray:1,2;" x1="1346.29" x2="1491.2421" y1="817.3572" y2="817.3572"/><text fill="#000000" font-family="sans-serif" font-size="14" lengthAdjust="spacing" textLength="31.5068" x="1491.2421" y="821.7039">nota</text><line style="stroke:#555555;stroke-width:1;stroke-dasharray:1,2;" x1="1522.749" x2="1667.7011" y1="817.3572" y2="817.3572"/></g><!--class Retriever--><g class="entity" data-qualified-name="src.rag.Retriever" data-source-line="82" id="ent0013"><rect fill="#FFFFFF" height="119.125" rx="2.5" ry="2.5" style="stroke:#555555;stroke-width:0.5;" width="409.0586" x="681.47" y="955.39"/><rect fill="#E8EAF6" height="37.9375" rx="2.5" ry="2.5" style="stroke:#E8EAF6;stroke-width:0.5;" width="409.0586" x="681.47" y="955.39"/><rect fill="#E8EAF6" height="2.5" style="stroke:#E8EAF6;stroke-width:0.5;" width="409.0586" x="681.47" y="990.8275"/><rect fill="none" height="119.125" rx="2.5" ry="2.5" style="stroke:#555555;stroke-width:0.5;" width="409.0586" x="681.47" y="955.39"/><ellipse cx="853.9221" cy="974.3588" fill="#ADD1B2" rx="11" ry="11" style="stroke:#181818;stroke-width:1;"/><path d="M856.8909,979.9994 Q856.3128,980.2963 855.6721,980.4369 Q855.0315,980.5931 854.3284,980.5931 Q851.8284,980.5931 850.5003,978.9525 Q849.1878,977.2963 849.1878,974.1713 Q849.1878,971.0463 850.5003,969.39 Q851.8284,967.7338 854.3284,967.7338 Q855.0315,967.7338 855.6721,967.89 Q856.3284,968.0463 856.8909,968.3431 L856.8909,971.0619 Q856.2659,970.4838 855.6721,970.2181 Q855.0784,969.9369 854.4534,969.9369 Q853.1096,969.9369 852.4221,971.015 Q851.7346,972.0775 851.7346,974.1713 Q851.7346,976.265 852.4221,977.3431 Q853.1096,978.4056 854.4534,978.4056 Q855.0784,978.4056 855.6721,978.14 Q856.2659,977.8588 856.8909,977.2806 L856.8909,979.9994 Z " fill="#000000"/><text fill="#000000" font-family="sans-serif" font-size="12" font-style="italic" lengthAdjust="spacing" textLength="59.6543" x="872.4221" y="971.5287">&#171;module&#187;</text><text fill="#000000" font-family="sans-serif" font-size="12" lengthAdjust="spacing" textLength="55.4941" x="874.5022" y="985.4974">Retriever</text><line style="stroke:#555555;stroke-width:0.5;" x1="682.47" x2="1089.5286" y1="993.3275" y2="993.3275"/><line style="stroke:#555555;stroke-width:0.5;" x1="682.47" x2="1089.5286" y1="1001.3275" y2="1001.3275"/><text fill="#000000" font-family="sans-serif" font-size="14" lengthAdjust="spacing" textLength="365.832" x="687.47" y="1018.3226">+hybrid_search(vs, docs, query, k) : List[Document]</text><text fill="#000000" font-family="sans-serif" font-size="14" lengthAdjust="spacing" textLength="374.3701" x="687.47" y="1034.6195">+get_semantic_results(vs, query, k) : List[Document]</text><text fill="#000000" font-family="sans-serif" font-size="14" lengthAdjust="spacing" textLength="384.7744" x="687.47" y="1050.9164">+get_bm25_results(chunks, query, k) : List[Document]</text><text fill="#000000" font-family="sans-serif" font-size="14" lengthAdjust="spacing" textLength="397.0586" x="687.47" y="1067.2132">+reciprocal_rank_fusion(sem, bm25, k) : List[Document]</text></g><!--class Chunker--><g class="entity" data-qualified-name="src.rag.Chunker" data-source-line="89" id="ent0014"><rect fill="#FFFFFF" height="119.125" rx="2.5" ry="2.5" style="stroke:#555555;stroke-width:0.5;" width="382.9932" x="680.5" y="1166.52"/><rect fill="#E8EAF6" height="37.9375" rx="2.5" ry="2.5" style="stroke:#E8EAF6;stroke-width:0.5;" width="382.9932" x="680.5" y="1166.52"/><rect fill="#E8EAF6" height="2.5" style="stroke:#E8EAF6;stroke-width:0.5;" width="382.9932" x="680.5" y="1201.9575"/><rect fill="none" height="119.125" rx="2.5" ry="2.5" style="stroke:#555555;stroke-width:0.5;" width="382.9932" x="680.5" y="1166.52"/><ellipse cx="839.9194" cy="1185.4888" fill="#ADD1B2" rx="11" ry="11" style="stroke:#181818;stroke-width:1;"/><path d="M842.8882,1191.1294 Q842.3101,1191.4263 841.6694,1191.5669 Q841.0288,1191.7231 840.3257,1191.7231 Q837.8257,1191.7231 836.4976,1190.0825 Q835.1851,1188.4263 835.1851,1185.3013 Q835.1851,1182.1763 836.4976,1180.52 Q837.8257,1178.8638 840.3257,1178.8638 Q841.0288,1178.8638 841.6694,1179.02 Q842.3257,1179.1763 842.8882,1179.4731 L842.8882,1182.1919 Q842.2632,1181.6138 841.6694,1181.3481 Q841.0757,1181.0669 840.4507,1181.0669 Q839.1069,1181.0669 838.4194,1182.145 Q837.7319,1183.2075 837.7319,1185.3013 Q837.7319,1187.395 838.4194,1188.4731 Q839.1069,1189.5356 840.4507,1189.5356 Q841.0757,1189.5356 841.6694,1189.27 Q842.2632,1188.9888 842.8882,1188.4106 L842.8882,1191.1294 Z " fill="#000000"/><text fill="#000000" font-family="sans-serif" font-size="12" font-style="italic" lengthAdjust="spacing" textLength="59.6543" x="858.4194" y="1182.6587">&#171;module&#187;</text><text fill="#000000" font-family="sans-serif" font-size="12" lengthAdjust="spacing" textLength="50.4609" x="863.0161" y="1196.6274">Chunker</text><line style="stroke:#555555;stroke-width:0.5;" x1="681.5" x2="1062.4932" y1="1204.4575" y2="1204.4575"/><line style="stroke:#555555;stroke-width:0.5;" x1="681.5" x2="1062.4932" y1="1212.4575" y2="1212.4575"/><text fill="#000000" font-family="sans-serif" font-size="14" lengthAdjust="spacing" textLength="282.4063" x="686.5" y="1229.4526">+load_all_documents() : List[Document]</text><text fill="#000000" font-family="sans-serif" font-size="14" lengthAdjust="spacing" textLength="235.6484" x="686.5" y="1245.7495">+load_pdf(path) : List[Document]</text><text fill="#000000" font-family="sans-serif" font-size="14" lengthAdjust="spacing" textLength="291.0195" x="686.5" y="1262.0464">+split_documents(docs) : List[Document]</text><text fill="#000000" font-family="sans-serif" font-size="14" lengthAdjust="spacing" textLength="370.9932" x="686.5" y="1278.3432">-_dicts_to_documents(data, source) : List[Document]</text></g><!--class Embedder--><g class="entity" data-qualified-name="src.rag.Embedder" data-source-line="96" id="ent0015"><rect fill="#FFFFFF" height="102.8281" rx="2.5" ry="2.5" style="stroke:#555555;stroke-width:0.5;" width="308.3242" x="1125.84" y="963.54"/><rect fill="#E8EAF6" height="37.9375" rx="2.5" ry="2.5" style="stroke:#E8EAF6;stroke-width:0.5;" width="308.3242" x="1125.84" y="963.54"/><rect fill="#E8EAF6" height="2.5" style="stroke:#E8EAF6;stroke-width:0.5;" width="308.3242" x="1125.84" y="998.9775"/><rect fill="none" height="102.8281" rx="2.5" ry="2.5" style="stroke:#555555;stroke-width:0.5;" width="308.3242" x="1125.84" y="963.54"/><ellipse cx="1244.841" cy="982.5088" fill="#ADD1B2" rx="11" ry="11" style="stroke:#181818;stroke-width:1;"/><path d="M1247.8097,988.1494 Q1247.2316,988.4463 1246.591,988.5869 Q1245.9504,988.7431 1245.2472,988.7431 Q1242.7472,988.7431 1241.4191,987.1025 Q1240.1066,985.4463 1240.1066,982.3213 Q1240.1066,979.1963 1241.4191,977.54 Q1242.7472,975.8838 1245.2472,975.8838 Q1245.9504,975.8838 1246.591,976.04 Q1247.2472,976.1963 1247.8097,976.4931 L1247.8097,979.2119 Q1247.1847,978.6338 1246.591,978.3681 Q1245.9972,978.0869 1245.3722,978.0869 Q1244.0285,978.0869 1243.341,979.165 Q1242.6535,980.2275 1242.6535,982.3213 Q1242.6535,984.415 1243.341,985.4931 Q1244.0285,986.5556 1245.3722,986.5556 Q1245.9972,986.5556 1246.591,986.29 Q1247.1847,986.0088 1247.8097,985.4306 L1247.8097,988.1494 Z " fill="#000000"/><text fill="#000000" font-family="sans-serif" font-size="12" font-style="italic" lengthAdjust="spacing" textLength="59.6543" x="1266.425" y="979.6787">&#171;module&#187;</text><text fill="#000000" font-family="sans-serif" font-size="12" lengthAdjust="spacing" textLength="61.8223" x="1265.341" y="993.6474">Embedder</text><line style="stroke:#555555;stroke-width:0.5;" x1="1126.84" x2="1433.1642" y1="1001.4775" y2="1001.4775"/><line style="stroke:#555555;stroke-width:0.5;" x1="1126.84" x2="1433.1642" y1="1009.4775" y2="1009.4775"/><text fill="#000000" font-family="sans-serif" font-size="14" lengthAdjust="spacing" textLength="262.7256" x="1131.84" y="1026.4726">+build_vectorstore(chunks) : Chroma</text><text fill="#000000" font-family="sans-serif" font-size="14" lengthAdjust="spacing" textLength="208.5029" x="1131.84" y="1042.7695">+load_vectorstore() : Chroma</text><text fill="#000000" font-family="sans-serif" font-size="14" lengthAdjust="spacing" textLength="296.3242" x="1131.84" y="1059.0664">+get_embedding_function() : Embeddings</text></g><!--class ClinicalResponse--><g class="entity" data-qualified-name="src.agent.ClinicalResponse" data-source-line="119" id="ent0024"><rect fill="#FFFFFF" height="119.125" rx="2.5" ry="2.5" style="stroke:#555555;stroke-width:0.5;" width="194.7725" x="1153.61" y="447.36"/><rect fill="#E8EAF6" height="37.9375" rx="2.5" ry="2.5" style="stroke:#E8EAF6;stroke-width:0.5;" width="194.7725" x="1153.61" y="447.36"/><rect fill="#E8EAF6" height="2.5" style="stroke:#E8EAF6;stroke-width:0.5;" width="194.7725" x="1153.61" y="482.7975"/><rect fill="none" height="119.125" rx="2.5" ry="2.5" style="stroke:#555555;stroke-width:0.5;" width="194.7725" x="1153.61" y="447.36"/><ellipse cx="1196.2081" cy="466.3288" fill="#ADD1B2" rx="11" ry="11" style="stroke:#181818;stroke-width:1;"/><path d="M1199.1768,471.9694 Q1198.5987,472.2663 1197.9581,472.4069 Q1197.3175,472.5631 1196.6143,472.5631 Q1194.1143,472.5631 1192.7862,470.9225 Q1191.4737,469.2663 1191.4737,466.1413 Q1191.4737,463.0163 1192.7862,461.36 Q1194.1143,459.7038 1196.6143,459.7038 Q1197.3175,459.7038 1197.9581,459.86 Q1198.6143,460.0163 1199.1768,460.3131 L1199.1768,463.0319 Q1198.5518,462.4538 1197.9581,462.1881 Q1197.3643,461.9069 1196.7393,461.9069 Q1195.3956,461.9069 1194.7081,462.985 Q1194.0206,464.0475 1194.0206,466.1413 Q1194.0206,468.235 1194.7081,469.3131 Q1195.3956,470.3756 1196.7393,470.3756 Q1197.3643,470.3756 1197.9581,470.11 Q1198.5518,469.8288 1199.1768,469.2506 L1199.1768,471.9694 Z " fill="#000000"/><text fill="#000000" font-family="sans-serif" font-size="12" font-style="italic" lengthAdjust="spacing" textLength="66.2344" x="1233.9455" y="463.4987">&#171;Pydantic&#187;</text><text fill="#000000" font-family="sans-serif" font-size="12" lengthAdjust="spacing" textLength="101.4434" x="1216.341" y="477.4674">ClinicalResponse</text><line style="stroke:#555555;stroke-width:0.5;" x1="1154.61" x2="1347.3825" y1="485.2975" y2="485.2975"/><text fill="#000000" font-family="sans-serif" font-size="14" lengthAdjust="spacing" textLength="94.4521" x="1159.61" y="502.2926">+answer : str</text><text fill="#000000" font-family="sans-serif" font-size="14" lengthAdjust="spacing" textLength="160.8154" x="1159.61" y="518.5895">+confidence_level : str</text><text fill="#000000" font-family="sans-serif" font-size="14" lengthAdjust="spacing" textLength="133.376" x="1159.61" y="534.8864">+sources : List[str]</text><text fill="#000000" font-family="sans-serif" font-size="14" lengthAdjust="spacing" textLength="182.7725" x="1159.61" y="551.1832">+suggested_followup : str</text><line style="stroke:#555555;stroke-width:0.5;" x1="1154.61" x2="1347.3825" y1="558.485" y2="558.485"/></g><!--class Agent--><g class="entity" data-qualified-name="src.agent.Agent" data-source-line="126" id="ent0025"><rect fill="#FFFFFF" height="102.8281" rx="2.5" ry="2.5" style="stroke:#555555;stroke-width:0.5;" width="303.3477" x="1359.33" y="267.53"/><rect fill="#E8EAF6" height="37.9375" rx="2.5" ry="2.5" style="stroke:#E8EAF6;stroke-width:0.5;" width="303.3477" x="1359.33" y="267.53"/><rect fill="#E8EAF6" height="2.5" style="stroke:#E8EAF6;stroke-width:0.5;" width="303.3477" x="1359.33" y="302.9675"/><rect fill="none" height="102.8281" rx="2.5" ry="2.5" style="stroke:#555555;stroke-width:0.5;" width="303.3477" x="1359.33" y="267.53"/><ellipse cx="1478.9267" cy="286.4988" fill="#ADD1B2" rx="11" ry="11" style="stroke:#181818;stroke-width:1;"/><path d="M1481.8954,292.1394 Q1481.3173,292.4363 1480.6767,292.5769 Q1480.0361,292.7331 1479.3329,292.7331 Q1476.8329,292.7331 1475.5048,291.0925 Q1474.1923,289.4363 1474.1923,286.3113 Q1474.1923,283.1863 1475.5048,281.53 Q1476.8329,279.8738 1479.3329,279.8738 Q1480.0361,279.8738 1480.6767,280.03 Q1481.3329,280.1863 1481.8954,280.4831 L1481.8954,283.2019 Q1481.2704,282.6238 1480.6767,282.3581 Q1480.0829,282.0769 1479.4579,282.0769 Q1478.1142,282.0769 1477.4267,283.155 Q1476.7392,284.2175 1476.7392,286.3113 Q1476.7392,288.405 1477.4267,289.4831 Q1478.1142,290.5456 1479.4579,290.5456 Q1480.0829,290.5456 1480.6767,290.28 Q1481.2704,289.9988 1481.8954,289.4206 L1481.8954,292.1394 Z " fill="#000000"/><text fill="#000000" font-family="sans-serif" font-size="12" font-style="italic" lengthAdjust="spacing" textLength="59.6543" x="1497.4267" y="283.6687">&#171;module&#187;</text><text fill="#000000" font-family="sans-serif" font-size="12" lengthAdjust="spacing" textLength="35.5195" x="1509.4941" y="297.6374">Agent</text><line style="stroke:#555555;stroke-width:0.5;" x1="1360.33" x2="1661.6777" y1="305.4675" y2="305.4675"/><text fill="#000000" font-family="sans-serif" font-size="14" lengthAdjust="spacing" textLength="164.9512" x="1365.33" y="322.4626">+SYSTEM_PROMPT : str</text><text fill="#000000" font-family="sans-serif" font-size="14" lengthAdjust="spacing" textLength="230.2822" x="1365.33" y="338.7595">~clinical_agent : CompiledGraph</text><line style="stroke:#555555;stroke-width:0.5;" x1="1360.33" x2="1661.6777" y1="346.0613" y2="346.0613"/><text fill="#000000" font-family="sans-serif" font-size="14" lengthAdjust="spacing" textLength="291.3477" x="1365.33" y="363.0564">+build_agent(llm, tools) : CompiledGraph</text></g><!--class Tools--><g class="entity" data-qualified-name="src.agent.Tools" data-source-line="132" id="ent0026"><rect fill="#FFFFFF" height="70.2344" rx="2.5" ry="2.5" style="stroke:#555555;stroke-width:0.5;" width="308.3857" x="1383.81" y="471.81"/><rect fill="#E8EAF6" height="37.9375" rx="2.5" ry="2.5" style="stroke:#E8EAF6;stroke-width:0.5;" width="308.3857" x="1383.81" y="471.81"/><rect fill="#E8EAF6" height="2.5" style="stroke:#E8EAF6;stroke-width:0.5;" width="308.3857" x="1383.81" y="507.2475"/><rect fill="none" height="70.2344" rx="2.5" ry="2.5" style="stroke:#555555;stroke-width:0.5;" width="308.3857" x="1383.81" y="471.81"/><ellipse cx="1505.9257" cy="490.7787" fill="#ADD1B2" rx="11" ry="11" style="stroke:#181818;stroke-width:1;"/><path d="M1508.8945,496.4194 Q1508.3163,496.7162 1507.6757,496.8569 Q1507.0351,497.0131 1506.332,497.0131 Q1503.832,497.0131 1502.5038,495.3725 Q1501.1913,493.7162 1501.1913,490.5912 Q1501.1913,487.4662 1502.5038,485.81 Q1503.832,484.1537 1506.332,484.1537 Q1507.0351,484.1537 1507.6757,484.31 Q1508.332,484.4662 1508.8945,484.7631 L1508.8945,487.4819 Q1508.2695,486.9037 1507.6757,486.6381 Q1507.082,486.3569 1506.457,486.3569 Q1505.1132,486.3569 1504.4257,487.435 Q1503.7382,488.4975 1503.7382,490.5912 Q1503.7382,492.685 1504.4257,493.7631 Q1505.1132,494.8256 1506.457,494.8256 Q1507.082,494.8256 1507.6757,494.56 Q1508.2695,494.2787 1508.8945,493.7006 L1508.8945,496.4194 Z " fill="#000000"/><text fill="#000000" font-family="sans-serif" font-size="12" font-style="italic" lengthAdjust="spacing" textLength="59.6543" x="1524.4257" y="487.9487">&#171;module&#187;</text><text fill="#000000" font-family="sans-serif" font-size="12" lengthAdjust="spacing" textLength="31.5996" x="1538.4531" y="501.9174">Tools</text><line style="stroke:#555555;stroke-width:0.5;" x1="1384.81" x2="1691.1957" y1="509.7475" y2="509.7475"/><line style="stroke:#555555;stroke-width:0.5;" x1="1384.81" x2="1691.1957" y1="517.7475" y2="517.7475"/><text fill="#000000" font-family="sans-serif" font-size="14" lengthAdjust="spacing" textLength="296.3857" x="1389.81" y="534.7426">+answer_clinical_question(query: str) : str</text></g><!--class App--><g class="entity" data-qualified-name="src.ui.App" data-source-line="146" id="ent0032"><rect fill="#FFFFFF" height="86.5313" rx="2.5" ry="2.5" style="stroke:#555555;stroke-width:0.5;" width="362.4033" x="1156.8" y="82"/><rect fill="#E8EAF6" height="37.9375" rx="2.5" ry="2.5" style="stroke:#E8EAF6;stroke-width:0.5;" width="362.4033" x="1156.8" y="82"/><rect fill="#E8EAF6" height="2.5" style="stroke:#E8EAF6;stroke-width:0.5;" width="362.4033" x="1156.8" y="117.4375"/><rect fill="none" height="86.5313" rx="2.5" ry="2.5" style="stroke:#555555;stroke-width:0.5;" width="362.4033" x="1156.8" y="82"/><ellipse cx="1300.8825" cy="100.9688" fill="#ADD1B2" rx="11" ry="11" style="stroke:#181818;stroke-width:1;"/><path d="M1303.8513,106.6094 Q1303.2731,106.9063 1302.6325,107.0469 Q1301.9919,107.2031 1301.2888,107.2031 Q1298.7888,107.2031 1297.4606,105.5625 Q1296.1481,103.9063 1296.1481,100.7813 Q1296.1481,97.6563 1297.4606,96 Q1298.7888,94.3438 1301.2888,94.3438 Q1301.9919,94.3438 1302.6325,94.5 Q1303.2888,94.6563 1303.8513,94.9531 L1303.8513,97.6719 Q1303.2263,97.0938 1302.6325,96.8281 Q1302.0388,96.5469 1301.4138,96.5469 Q1300.07,96.5469 1299.3825,97.625 Q1298.695,98.6875 1298.695,100.7813 Q1298.695,102.875 1299.3825,103.9531 Q1300.07,105.0156 1301.4138,105.0156 Q1302.0388,105.0156 1302.6325,104.75 Q1303.2263,104.4688 1303.8513,103.8906 L1303.8513,106.6094 Z " fill="#000000"/><text fill="#000000" font-family="sans-serif" font-size="12" font-style="italic" lengthAdjust="spacing" textLength="69.7383" x="1319.3825" y="98.1387">&#171;Streamlit&#187;</text><text fill="#000000" font-family="sans-serif" font-size="12" lengthAdjust="spacing" textLength="23.4434" x="1342.53" y="112.1074">App</text><line style="stroke:#555555;stroke-width:0.5;" x1="1157.8" x2="1518.2033" y1="119.9375" y2="119.9375"/><line style="stroke:#555555;stroke-width:0.5;" x1="1157.8" x2="1518.2033" y1="127.9375" y2="127.9375"/><text fill="#000000" font-family="sans-serif" font-size="14" lengthAdjust="spacing" textLength="333.8125" x="1162.8" y="144.9326">+render_structured_response(response) : None</text><text fill="#000000" font-family="sans-serif" font-size="14" lengthAdjust="spacing" textLength="350.4033" x="1162.8" y="161.2295">+parse_response(content) : ClinicalResponse | str</text></g><!--reverse link BaseLoader to LegacyLoader--><g class="link" data-entity-1="ent0003" data-entity-2="ent0005" data-link-type="extension" data-source-line="44" id="lnk7"><path codeLine="44" d="M331.0911,1274.3047 C365.1511,1308.4547 405.17,1348.58 445.23,1388.75" fill="none" id="BaseLoader-backto-LegacyLoader" style="stroke:#333333;stroke-width:1;"/><polygon fill="none" points="318.38,1261.56,326.8429,1278.5417,335.3394,1270.0677,318.38,1261.56" style="stroke:#333333;stroke-width:1;"/><text fill="#000000" font-family="sans-serif" font-size="13" lengthAdjust="spacing" textLength="76.9082" x="386" y="1330.7069">implements</text></g><!--reverse link BaseLoader to WebScraper--><g class="link" data-entity-1="ent0003" data-entity-2="ent0006" data-link-type="extension" data-source-line="45" id="lnk8"><path codeLine="45" d="M262.8598,1278.1932 C251.4598,1305.7532 241.9,1328.87 227.24,1364.3" fill="none" id="BaseLoader-backto-WebScraper" style="stroke:#333333;stroke-width:1;"/><polygon fill="none" points="269.74,1261.56,257.3154,1275.8998,268.4042,1280.4866,269.74,1261.56" style="stroke:#333333;stroke-width:1;"/><text fill="#000000" font-family="sans-serif" font-size="13" lengthAdjust="spacing" textLength="76.9082" x="245" y="1330.7069">implements</text></g><!--link Pipeline to Retriever--><g class="link" data-entity-1="ent0012" data-entity-2="ent0013" data-link-type="dependency" data-source-line="104" id="lnk16"><path codeLine="104" d="M1345.06,835.79 C1250.18,872.61 1136.6936,916.6595 1043.5836,952.7895" fill="none" id="Pipeline-to-Retriever" style="stroke:#333333;stroke-width:1;"/><polygon fill="#333333" points="1037.99,954.96,1047.8275,955.4333,1042.6514,953.1512,1044.9334,947.9751,1037.99,954.96" style="stroke:#333333;stroke-width:1;"/><text fill="#000000" font-family="sans-serif" font-size="13" lengthAdjust="spacing" textLength="124.7441" x="1141" y="921.4569">usa para b&#250;squeda</text></g><!--link Pipeline to Embedder--><g class="link" data-entity-1="ent0012" data-entity-2="ent0015" data-link-type="dependency" data-source-line="105" id="lnk17"><path codeLine="105" d="M1383.55,878.56 C1373.61,888.37 1363.96,898.39 1355,908.39 C1339.93,925.22 1328.5421,940.1747 1316.1321,958.1247" fill="none" id="Pipeline-to-Embedder" style="stroke:#333333;stroke-width:1;"/><polygon fill="#333333" points="1312.72,963.06,1321.1284,957.9317,1315.5634,958.9472,1314.548,953.3823,1312.72,963.06" style="stroke:#333333;stroke-width:1;"/><text fill="#000000" font-family="sans-serif" font-size="13" lengthAdjust="spacing" textLength="115.21" x="1356" y="921.4569">carga vectorstore</text></g><!--link Pipeline to RAGResponse--><g class="link" data-entity-1="ent0012" data-entity-2="ent0011" data-link-type="dependency" data-source-line="106" id="lnk18"><path codeLine="106" d="M1477.58,878.8 C1477.17,894.74 1479.16,910.74 1485,925.39 C1491.83,942.52 1499.5697,953.897 1512.2897,967.177" fill="none" id="Pipeline-to-RAGResponse" style="stroke:#333333;stroke-width:1;stroke-dasharray:7,7;"/><polygon fill="#333333" points="1516.44,971.51,1513.1032,962.2436,1512.9814,967.8992,1507.3259,967.7773,1516.44,971.51" style="stroke:#333333;stroke-width:1;"/><text fill="#000000" font-family="sans-serif" font-size="13" lengthAdjust="spacing" textLength="64.2319" x="1486" y="921.4569">&#171;creates&#187;</text></g><!--link Pipeline to Config--><g class="link" data-entity-1="ent0012" data-entity-2="ent0009" data-link-type="dependency" data-source-line="107" id="lnk19"><path codeLine="107" d="M1609.66,878.78 C1627.22,895.06 1645.71,911.16 1664,925.39 C1677.09,935.57 1686.4005,942.283 1700.7705,951.693" fill="none" id="Pipeline-to-Config" style="stroke:#333333;stroke-width:1;"/><polygon fill="#333333" points="1705.79,954.98,1700.452,946.7032,1701.6071,952.2409,1696.0694,953.3959,1705.79,954.98" style="stroke:#333333;stroke-width:1;"/><text fill="#000000" font-family="sans-serif" font-size="13" lengthAdjust="spacing" textLength="57.8779" x="1665" y="921.4569">get_llm()</text></g><!--link Embedder to Chunker--><g class="link" data-entity-1="ent0015" data-entity-2="ent0014" data-link-type="dependency" data-source-line="110" id="lnk20"><path codeLine="110" d="M1180.71,1066.84 C1122.22,1096.83 1053.2995,1132.1533 992.2695,1163.4333" fill="none" id="Embedder-to-Chunker" style="stroke:#333333;stroke-width:1;"/><polygon fill="#333333" points="986.93,1166.17,996.7637,1165.6246,991.3796,1163.8894,993.1148,1158.5053,986.93,1166.17" style="stroke:#333333;stroke-width:1;"/><text fill="#000000" font-family="sans-serif" font-size="13" lengthAdjust="spacing" textLength="81.377" x="1129.5518" y="1117.5869">&#171;build time&#187;</text><text fill="#000000" font-family="sans-serif" font-size="13" lengthAdjust="spacing" textLength="138.4805" x="1101" y="1132.7197">load_all_documents()</text></g><!--link Chunker to LegacyLoader--><g class="link" data-entity-1="ent0014" data-entity-2="ent0005" data-link-type="dependency" data-source-line="111" id="lnk21"><path codeLine="111" d="M810.57,1286.13 C791.15,1303.05 769,1320.68 747,1334.64 C709.28,1358.59 670.9637,1377.5905 630.8637,1395.0005" fill="none" id="Chunker-to-LegacyLoader" style="stroke:#333333;stroke-width:1;"/><polygon fill="#333333" points="625.36,1397.39,635.2085,1397.4749,629.9464,1395.3988,632.0225,1390.1366,625.36,1397.39" style="stroke:#333333;stroke-width:1;"/><text fill="#000000" font-family="sans-serif" font-size="13" lengthAdjust="spacing" textLength="58.6523" x="770" y="1330.7069">instancia</text></g><!--link Chunker to WebScraper--><g class="link" data-entity-1="ent0014" data-entity-2="ent0006" data-link-type="dependency" data-source-line="112" id="lnk22"><path codeLine="112" d="M717.07,1286.04 C691.85,1294.6 665.84,1302.81 641,1309.64 C518.29,1343.37 480.75,1324.46 360,1364.64 C354.08,1366.61 353.7149,1366.6351 347.7149,1368.8951" fill="none" id="Chunker-to-WebScraper" style="stroke:#333333;stroke-width:1;"/><polygon fill="#333333" points="342.1,1371.01,351.9323,1371.5808,346.7791,1369.2475,349.1124,1364.0943,342.1,1371.01" style="stroke:#333333;stroke-width:1;"/><text fill="#000000" font-family="sans-serif" font-size="13" lengthAdjust="spacing" textLength="58.6523" x="607" y="1330.7069">instancia</text></g><!--link Agent to Config--><g class="link" data-entity-1="ent0025" data-entity-2="ent0009" data-link-type="dependency" data-source-line="137" id="lnk27"><path codeLine="137" d="M1634.12,370.86 C1664.74,389.98 1693.51,415.13 1710,447.36 C1796.63,616.66 1808.5748,841.7401 1809.0248,948.9101" fill="none" id="Agent-to-Config" style="stroke:#333333;stroke-width:1;"/><polygon fill="#333333" points="1809.05,954.91,1813.0122,945.8933,1809.029,949.91,1805.0122,945.9269,1809.05,954.91" style="stroke:#333333;stroke-width:1;"/><text fill="#000000" font-family="sans-serif" font-size="13" lengthAdjust="spacing" textLength="57.8779" x="1770" y="611.5569">get_llm()</text></g><!--link Agent to Tools--><g class="link" data-entity-1="ent0025" data-entity-2="ent0026" data-link-type="dependency" data-source-line="138" id="lnk28"><path codeLine="138" d="M1514.63,370.63 C1516,385.71 1517.77,402.24 1520,417.36 C1522.65,435.37 1525.3372,449.3744 1528.8572,465.7244" fill="none" id="Agent-to-Tools" style="stroke:#333333;stroke-width:1;"/><polygon fill="#333333" points="1530.12,471.59,1532.1362,461.9497,1529.0677,466.702,1524.3154,463.6335,1530.12,471.59" style="stroke:#333333;stroke-width:1;"/><text fill="#000000" font-family="sans-serif" font-size="13" lengthAdjust="spacing" textLength="134.9893" x="1521" y="413.4269">registra herramienta</text></g><!--link Agent to ClinicalResponse--><g class="link" data-entity-1="ent0025" data-entity-2="ent0024" data-link-type="dependency" data-source-line="139" id="lnk29"><path codeLine="139" d="M1439.54,370.73 C1425.75,380.55 1411.42,390.77 1398,400.36 C1376.91,415.44 1359.0238,428.2606 1337.8538,443.4606" fill="none" id="Agent-to-ClinicalResponse" style="stroke:#333333;stroke-width:1;stroke-dasharray:7,7;"/><polygon fill="#333333" points="1332.98,446.96,1342.6237,444.9601,1337.0415,444.0438,1337.9578,438.4617,1332.98,446.96" style="stroke:#333333;stroke-width:1;"/><text fill="#000000" font-family="sans-serif" font-size="13" lengthAdjust="spacing" textLength="109.4336" x="1399" y="413.4269">response_format</text></g><!--link Tools to Pipeline--><g class="link" data-entity-1="ent0026" data-entity-2="ent0012" data-link-type="dependency" data-source-line="140" id="lnk30"><path codeLine="140" d="M1498.67,542.33 C1483.87,557.82 1468.76,577.37 1461,598.49 C1453.19,619.72 1452.3799,636.9812 1456.9199,659.2212" fill="none" id="Tools-to-Pipeline" style="stroke:#333333;stroke-width:1;"/><polygon fill="#333333" points="1458.12,665.1,1460.2391,655.4818,1457.1199,660.201,1452.4007,657.0819,1458.12,665.1" style="stroke:#333333;stroke-width:1;"/><text fill="#000000" font-family="sans-serif" font-size="13" lengthAdjust="spacing" textLength="69.9385" x="1462" y="611.5569">ask(query)</text></g><!--link App to Agent--><g class="link" data-entity-1="ent0032" data-entity-2="ent0025" data-link-type="dependency" data-source-line="152" id="lnk33"><path codeLine="152" d="M1376.39,168.81 C1402.67,197.92 1433.6198,232.216 1461.3298,262.916" fill="none" id="App-to-Agent" style="stroke:#333333;stroke-width:1;"/><polygon fill="#333333" points="1465.35,267.37,1462.289,258.0089,1461.9998,263.6583,1456.3504,263.3691,1465.35,267.37" style="stroke:#333333;stroke-width:1;"/><text fill="#000000" font-family="sans-serif" font-size="13" lengthAdjust="spacing" textLength="146.3008" x="1420" y="213.5969">clinical_agent.invoke()</text></g><!--link App to ClinicalResponse--><g class="link" data-entity-1="ent0032" data-entity-2="ent0024" data-link-type="dependency" data-source-line="153" id="lnk34"><path codeLine="153" d="M1307.19,168.75 C1296.48,185.63 1285.52,205.73 1279,225.53 C1254.76,299.19 1249.838,383.1201 1249.568,440.9401" fill="none" id="App-to-ClinicalResponse" style="stroke:#333333;stroke-width:1;stroke-dasharray:7,7;"/><polygon fill="#333333" points="1249.54,446.94,1253.582,437.9588,1249.5633,441.9401,1245.5821,437.9214,1249.54,446.94" style="stroke:#333333;stroke-width:1;"/><text fill="#000000" font-family="sans-serif" font-size="13" lengthAdjust="spacing" textLength="61.5786" x="1280" y="323.5169">renderiza</text></g><?plantuml-src hLTjRzis4FwUNq6q7-QWYR4bSvi6NG37aTC0piliR5sn3G8jdMt25AcHbBFqPJziN_V7TYHbYvBjDcche8ahFdV7U-xLUiv4JXNDICAfrbrZ51iN1YuIAKRi7P3lTtGTqfV2k9CV3eAZd2PpEeNgy30u7EFXLCb2f3t9fI9F-rtx4o3qZARoZeafcL2keMcJlDyX-9mszBoPCGF-HAeKLAczq-cubrsbv5tvxl3mqBrx3HI1JKLFewEest--yt7TewNfqC3HqT76-ppjT-mFgjdvZlpqc0VnqM-tmsxlzkBwYWowRwCX8IsDMacXQKe9238k64-9OHdiFbhzqfadMYLj-DiecXWcnHFq_2nwqN-ENZgFw5YxivBsKwfX82rZvDMhvTd9ISc9VPwHzylt7mb7Q6kN79C1q-RtCvQOFntmerVkTGvWIfFxKckbQ9-aupYdPeRYD_Wdi137J30JnwqIuG6x0MAROQyuKK0DnDmPZbDgw1ZzSlWhAM3zYczWF4eKpHiNB1H74NGsU3Tp-QJnVOfMDrqQfPpGm-yRJy0aitXcCkv0fq0BmoO57yaY3t5b86DqY8F6T2doIYcwsSSyXfhcX0CLZeA9FMkb4okmmfPK81bXv3_ixzUZTanObdF8G1YzXWp88tNa5nH5x_ggVt5EMWdDAK5dXLuWsvH_NGLWslVx_PUz7ylm-gZtf9YmAIPw9jE2GoFD1uFB-6Pu_Ul56PPcFGkUaUl1e7lPZI-lpwB1-k5DTDMzs78u1HDpdlau8vEz6JMNCWLUXUBnh0sxvxw7V5sVK7Hg6yHX_w1_jcmGdYeqC0ITIw41-RBfvDutACDetRbigRkCQQeIqAj4bKbXysD3gxXXEN0cO7DCC9qNa1YfDFw3EA79351fRwPaHic7ghPBS5eQqYjetNvJ11tGyzPV1QZxFP9WNE8PiwRkRQm21W81rwBZ72-Gcqgo47EzHmBXUWk9RGu4dhXSy5uqKPJpoesWWTGej4-xJOGq5F-kNcrKu3e84E0aaIeliEDV7dHM8YbJU2rgmK0m9qbmIu85hfbcXgMoCd8b2OfGDQM8rocGqSy3dD54C787Opl5L27i26klHti8k7l0misQZIKuknyhbiOQg4fchGLoYgxWxvBe-IVuy8Mc8QDeFOaLw88Z0Ol7I8-pWyvASXdL1qaZ9GoJ8g4ynXOsZoU5nk7Rmkli4QjrktoDe9wrkPqUErGUdY4bFaydBJjJFudKESTHLgcrj7z2mDOQZZGT6naAOPVOAul_8Tv6sHZITBkxljR2kl4nsL0zfQ-VgJ4VPN1cSHF5A0ct93bij7ojmyQyZ_Dk29mc2CEEXkbj66IvnEJ7WX8sLIXfbIc_Q-4xgvw6_piXGT8VsqsFsDsJZF_xLsDYfRI9Nd62Q5zbWKy1kDssgeCcVOmi-ZK8ctHJQpdutBXUpQFFkUUtKR-YPdGE2DHWFALdfzxNwhhUJfc_n5sdMcTFJluGcv9tfn9myiqTH6X3HS9e4zVSG5QuBnYbtVFewlPR35Fy88mTfqVzJlIoFavx60o6tI6OgJVtgMjL3nkfYOrW2YAnM-u2-ETcBXxMwhkOJa4RIEE9v5pU5NcWe5QKNUl5jeeSlHtTHcvBkhovNRk2hrT7GmipR8yOARclLXoNZ4DwZZ6hzlv_qAIdnGjj1DOkTsiLRhkSPovUwSJwqgwwNGVt6thDQrJjlMqMYN_2KWbn_X8XJi6KsMz8-5r1uPBD44kN8gvGry9lPVn738ZAgDafjJeBLVKkBQpsbDqlIV5VBhv5VXVCRjMdqSleHMshxkOvXcHaiFbaE4KQKL4Wi9XZfAT8JA4m0vUUjvOVQb_Jl1GsIQHcXSJiDyYcIwKcbHyQ4SNRU1RB00HnggTRcuc5d8EDhfNP7YZh07j7_mS0?></g></svg>